grf
version=1
nRows=6
nColumns=37
inDegrees=no
endheader
time	ground_force_1_vx	ground_force_1_vy	ground_force_1_vz	ground_force_1_px	ground_force_1_py	ground_force_1_pz	ground_moment_1_mx	ground_moment_1_my	ground_moment_1_mz	ground_force_2_vx	ground_force_2_vy	ground_force_2_vz	ground_force_2_px	ground_force_2_py	ground_force_2_pz	ground_moment_2_mx	ground_moment_2_my	ground_moment_2_mz	ground_force_3_vx	ground_force_3_vy	ground_force_3_vz	ground_force_3_px	ground_force_3_py	ground_force_3_pz	ground_moment_3_mx	ground_moment_3_my	ground_moment_3_mz	ground_force_4_vx	ground_force_4_vy	ground_force_4_vz	ground_force_4_px	ground_force_4_py	ground_force_4_pz	ground_moment_4_mx	ground_moment_4_my	ground_moment_4_mz
      7.53000000	      0.00000000	     -0.00000000	      0.00000000	      0.00000000	      0.00000000	      0.00000000	      0.00000000	      0.00000000	      0.00000000	    -51.39349365	     51.91355515	   -538.47857666	   -240.56952589	  -1098.38813386	      0.00000000	      0.00000000	      0.00000000	    116.05662237	    -76.57406773	   -105.18550203	   -551.61328125	   -237.16519530	   -670.67145925	      0.00000000	      0.00000000	     -0.00000000	   -434.03294353	      0.00000000	     -0.00000000	      0.00000000	      0.00000000	      0.00000000	      0.00000000	      0.00000000	      0.00000000	      0.00000000
      7.54000000	      0.00000000	     -0.00000000	      0.00000000	      0.00000000	      0.00000000	      0.00000000	      0.00000000	      0.00000000	      0.00000000	    126.57067871	    -13.70849037	   -609.24645996	   -255.44927886	  -1093.76289289	      0.00000000	      0.00000000	      0.00000000	    742.36125843	    121.33737131	     -5.92851746	   -543.90325928	   -250.49374721	   -677.13969051	      0.00000000	      0.00000000	     -0.00000000	  -1218.34678205	      0.00000000	     -0.00000000	      0.00000000	      0.00000000	      0.00000000	      0.00000000	      0.00000000	      0.00000000	      0.00000000
      7.55000000	      0.00000000	     -0.00000000	      0.00000000	      0.00000000	      0.00000000	      0.00000000	      0.00000000	      0.00000000	      0.00000000	     42.64676285	     55.60721588	   -749.01593018	   -254.50222456	  -1095.81348403	      0.00000000	      0.00000000	     -0.00000000	  -1272.26348804	    113.58000025	    -18.10411683	   -583.15661621	   -251.89308228	   -676.60063357	      0.00000000	      0.00000000	     -0.00000000	  -1962.82183615	      0.00000000	     -0.00000000	      0.00000000	      0.00000000	      0.00000000	      0.00000000	      0.00000000	      0.00000000	      0.00000000
      7.56000000	      0.00000000	     -0.00000000	      0.00000000	      0.00000000	      0.00000000	      0.00000000	      0.00000000	      0.00000000	      0.00000000	    -32.76689911	    124.58172607	   -787.42565918	   -253.21060287	  -1097.63566548	      0.00000000	      0.00000000	     -0.00000000	  -2337.11627125	     -3.89382013	    -85.49289669	   -635.02038574	   -248.26632125	   -674.91827598	      0.00000000	      0.00000000	     -0.00000000	  -1901.55171409	      0.00000000	     -0.00000000	      0.00000000	      0.00000000	      0.00000000	      0.00000000	      0.00000000	      0.00000000	      0.00000000
      7.57000000	      0.00000000	     -0.00000000	      0.00000000	      0.00000000	      0.00000000	      0.00000000	      0.00000000	      0.00000000	      0.00000000	    -74.28345490	    172.49789429	   -827.54772949	   -255.36305895	  -1097.61199058	      0.00000000	      0.00000000	     -0.00000000	  -3087.51237304	   -100.86742899	   -144.22394443	   -688.24151611	   -246.94355714	   -674.10692625	      0.00000000	      0.00000000	     -0.00000000	  -2270.35223598	      0.00000000	     -0.00000000	      0.00000000	      0.00000000	      0.00000000	      0.00000000	      0.00000000	      0.00000000	      0.00000000
      7.58000000	      0.00000000	     -0.00000000	      0.00000000	      0.00000000	      0.00000000	      0.00000000	      0.00000000	      0.00000000	      0.00000000	     32.26663208	    148.41549683	   -971.71844482	   -283.27947698	  -1085.24215805	      0.00000000	     -0.00000000	     -0.00000000	   -250.87510157	    -39.53476175	   -112.77168691	   -770.52508545	   -254.80365415	   -677.84438672	      0.00000000	      0.00000000	     -0.00000000	  -5753.68055702	      0.00000000	     -0.00000000	      0.00000000	      0.00000000	      0.00000000	      0.00000000	      0.00000000	      0.00000000	      0.00000000
